<svg width="66" height="65" viewBox="0 0 66 65" fill="none" xmlns="http://www.w3.org/2000/svg">
<path d="M33 3L3.5 32.5L33 62L62.5 32.5L33 3Z" stroke="#474747" stroke-width="4"/>
<path d="M33.478 44.372C32.0313 44.372 30.688 44.1033 29.448 43.566C28.208 43.008 27.154 42.2537 26.286 41.303C25.418 40.3523 24.7773 39.257 24.364 38.017L27.464 36.715C28.022 38.141 28.8383 39.2363 29.913 40.001C30.9877 40.7657 32.2277 41.148 33.633 41.148C34.4597 41.148 35.183 41.024 35.803 40.776C36.423 40.5073 36.8983 40.1353 37.229 39.66C37.5803 39.1847 37.756 38.637 37.756 38.017C37.756 37.1697 37.5183 36.498 37.043 36.002C36.5677 35.506 35.865 35.1133 34.935 34.824L30.595 33.46C28.859 32.9227 27.5363 32.1063 26.627 31.011C25.7177 29.895 25.263 28.593 25.263 27.105C25.263 25.803 25.5833 24.6663 26.224 23.695C26.8647 22.703 27.743 21.928 28.859 21.37C29.9957 20.812 31.2873 20.533 32.734 20.533C34.1187 20.533 35.3793 20.781 36.516 21.277C37.6527 21.7523 38.624 22.4137 39.43 23.261C40.2567 24.1083 40.856 25.09 41.228 26.206L38.19 27.539C37.7353 26.3197 37.0223 25.3793 36.051 24.718C35.1003 24.0567 33.9947 23.726 32.734 23.726C31.9693 23.726 31.2977 23.8603 30.719 24.129C30.1403 24.377 29.6857 24.749 29.355 25.245C29.045 25.7203 28.89 26.2783 28.89 26.919C28.89 27.663 29.1277 28.3243 29.603 28.903C30.0783 29.4817 30.8017 29.9157 31.773 30.205L35.803 31.476C37.6423 32.034 39.027 32.84 39.957 33.894C40.887 34.9273 41.352 36.219 41.352 37.769C41.352 39.0503 41.011 40.187 40.329 41.179C39.6677 42.171 38.748 42.9563 37.57 43.535C36.392 44.093 35.028 44.372 33.478 44.372Z" fill="#474747"/>
</svg>
