<svg width="65" height="65" viewBox="0 0 65 65" fill="none" xmlns="http://www.w3.org/2000/svg">
<path d="M32.5 3L3 32.5L32.5 62L62 32.5L32.5 3Z" stroke="white" stroke-width="4"/>
<path d="M32.978 44.372C31.5313 44.372 30.188 44.1033 28.948 43.566C27.708 43.008 26.654 42.2537 25.786 41.303C24.918 40.3523 24.2773 39.257 23.864 38.017L26.964 36.715C27.522 38.141 28.3383 39.2363 29.413 40.001C30.4877 40.7657 31.7277 41.148 33.133 41.148C33.9597 41.148 34.683 41.024 35.303 40.776C35.923 40.5073 36.3983 40.1353 36.729 39.66C37.0803 39.1847 37.256 38.637 37.256 38.017C37.256 37.1697 37.0183 36.498 36.543 36.002C36.0677 35.506 35.365 35.1133 34.435 34.824L30.095 33.46C28.359 32.9227 27.0363 32.1063 26.127 31.011C25.2177 29.895 24.763 28.593 24.763 27.105C24.763 25.803 25.0833 24.6663 25.724 23.695C26.3647 22.703 27.243 21.928 28.359 21.37C29.4957 20.812 30.7873 20.533 32.234 20.533C33.6187 20.533 34.8793 20.781 36.016 21.277C37.1527 21.7523 38.124 22.4137 38.93 23.261C39.7567 24.1083 40.356 25.09 40.728 26.206L37.69 27.539C37.2353 26.3197 36.5223 25.3793 35.551 24.718C34.6003 24.0567 33.4947 23.726 32.234 23.726C31.4693 23.726 30.7977 23.8603 30.219 24.129C29.6403 24.377 29.1857 24.749 28.855 25.245C28.545 25.7203 28.39 26.2783 28.39 26.919C28.39 27.663 28.6277 28.3243 29.103 28.903C29.5783 29.4817 30.3017 29.9157 31.273 30.205L35.303 31.476C37.1423 32.034 38.527 32.84 39.457 33.894C40.387 34.9273 40.852 36.219 40.852 37.769C40.852 39.0503 40.511 40.187 39.829 41.179C39.1677 42.171 38.248 42.9563 37.07 43.535C35.892 44.093 34.528 44.372 32.978 44.372Z" fill="white"/>
</svg>
